<svg width="28" height="25" viewBox="0 0 28 25" fill="none" xmlns="http://www.w3.org/2000/svg">
<path d="M12.015 18.8975C10.2675 18.8975 8.52002 18.62 6.86252 18.065C6.23252 17.8475 5.75252 17.405 5.54252 16.8275C5.32502 16.25 5.40002 15.6125 5.74502 15.0425L6.60752 13.61C6.78752 13.31 6.95252 12.71 6.95252 12.3575V10.19C6.95252 7.4 9.22502 5.1275 12.015 5.1275C14.805 5.1275 17.0775 7.4 17.0775 10.19V12.3575C17.0775 12.7025 17.2425 13.31 17.4225 13.6175L18.2775 15.0425C18.6 15.5825 18.66 16.235 18.4425 16.8275C18.225 17.42 17.7525 17.87 17.16 18.065C15.51 18.62 13.7625 18.8975 12.015 18.8975ZM12.015 6.2525C9.84752 6.2525 8.07752 8.015 8.07752 10.19V12.3575C8.07752 12.905 7.85252 13.715 7.57502 14.1875L6.71252 15.62C6.54752 15.8975 6.50252 16.19 6.60002 16.4375C6.69002 16.6925 6.91502 16.8875 7.22252 16.9925C10.3575 18.0425 13.68 18.0425 16.815 16.9925C17.085 16.9025 17.295 16.7 17.3925 16.43C17.49 16.16 17.4675 15.8675 17.3175 15.62L16.455 14.1875C16.17 13.7 15.9525 12.8975 15.9525 12.35V10.19C15.9525 8.015 14.19 6.2525 12.015 6.2525Z" fill="#1A1A1A"/>
<path d="M13.41 6.45501C13.3575 6.45501 13.305 6.44751 13.2525 6.43251C13.035 6.37251 12.825 6.32751 12.6225 6.29751C11.985 6.21501 11.37 6.26001 10.7925 6.43251C10.5825 6.50001 10.3575 6.43251 10.215 6.27501C10.0725 6.11751 10.0275 5.89251 10.11 5.69001C10.4175 4.90251 11.1675 4.38501 12.0225 4.38501C12.8775 4.38501 13.6275 4.89501 13.935 5.69001C14.01 5.89251 13.9725 6.11751 13.83 6.27501C13.7175 6.39501 13.56 6.45501 13.41 6.45501Z" fill="#1A1A1A"/>
<path d="M12.015 20.6075C11.2725 20.6075 10.5525 20.3075 10.0275 19.7825C9.50251 19.2575 9.20251 18.5375 9.20251 17.795H10.3275C10.3275 18.2375 10.5075 18.6725 10.8225 18.9875C11.1375 19.3025 11.5725 19.4825 12.015 19.4825C12.945 19.4825 13.7025 18.725 13.7025 17.795H14.8275C14.8275 19.3475 13.5675 20.6075 12.015 20.6075Z" fill="#1A1A1A"/>
<rect x="13.5" y="1" width="14" height="14" rx="7" fill="#D92D20" stroke="white"/>
<path d="M20.4518 11.62C19.7478 11.62 19.1798 11.46 18.7478 11.14C18.3238 10.82 17.9958 10.376 17.7638 9.808L18.6998 9.316C18.8278 9.732 19.0238 10.072 19.2878 10.336C19.5598 10.592 19.9558 10.72 20.4758 10.72C20.8438 10.72 21.1558 10.652 21.4118 10.516C21.6758 10.38 21.8798 10.188 22.0238 9.94C22.1678 9.684 22.2398 9.38 22.2398 9.028C22.2398 8.652 22.1718 8.34 22.0358 8.092C21.9078 7.836 21.7198 7.644 21.4718 7.516C21.2238 7.388 20.9198 7.324 20.5598 7.324C20.3038 7.324 20.0638 7.352 19.8398 7.408C19.6238 7.456 19.4278 7.536 19.2518 7.648C19.0758 7.76 18.9238 7.908 18.7958 8.092L17.9558 7.936L18.4238 3.58H22.8758V4.48H19.2398L18.9278 6.976L18.9038 7.084H18.9278C19.1198 6.884 19.3638 6.724 19.6598 6.604C19.9638 6.484 20.3238 6.424 20.7398 6.424C21.2438 6.424 21.6798 6.532 22.0478 6.748C22.4238 6.956 22.7158 7.252 22.9238 7.636C23.1318 8.02 23.2358 8.468 23.2358 8.98C23.2358 9.388 23.1678 9.756 23.0318 10.084C22.8958 10.412 22.7038 10.692 22.4558 10.924C22.2078 11.148 21.9118 11.32 21.5678 11.44C21.2318 11.56 20.8598 11.62 20.4518 11.62Z" fill="white"/>
</svg>
