<svg width="158" height="43" viewBox="0 0 158 43" fill="none" xmlns="http://www.w3.org/2000/svg">
<path d="M111.59 12H107.134L109.362 15.4884L111.59 12Z" fill="#1A2D57"/>
<path d="M114.047 15.6026L111.821 12.1142L109.593 15.6026H114.047Z" fill="#1A2D57"/>
<path d="M116.965 12L119.193 15.4884L121.421 12H116.965Z" fill="#1A2D57"/>
<path d="M123.878 15.6026L121.652 12.1151L119.424 15.6026H123.878Z" fill="#1A2D57"/>
<path d="M121.652 12.1151L121.651 12.1137L119.424 15.6026L121.652 12.1151Z" fill="#1A2D57"/>
<path d="M126.796 12L129.024 15.4884L131.252 12H126.796Z" fill="#1A2D57"/>
<path d="M133.71 15.6026L131.483 12.1151L129.254 15.6026H133.71Z" fill="#1A2D57"/>
<path d="M131.483 12.1151L131.483 12.1137L129.254 15.6026L131.483 12.1151Z" fill="#1A2D57"/>
<path d="M109.593 15.8486L111.821 19.338L114.047 15.8486H109.593Z" fill="#1A2D57"/>
<path d="M112.05 19.4517H116.504L114.278 15.9633L112.332 19.0099L112.05 19.4517Z" fill="#1A2D57"/>
<path d="M112.332 19.0099L114.278 15.9633L114.277 15.9628L112.332 19.0099Z" fill="#1A2D57"/>
<path d="M119.424 15.8486L121.651 19.338L123.878 15.8486H119.424Z" fill="#1A2D57"/>
<path d="M124.109 15.9637L121.881 19.4517H126.335L124.109 15.9637Z" fill="#1A2D57"/>
<path d="M129.254 15.8486L131.482 19.338L133.71 15.8486H129.254Z" fill="#1A2D57"/>
<path d="M136.167 19.4517L133.939 15.9633L131.713 19.4517H136.167Z" fill="#1A2D57"/>
<path d="M116.504 19.6987H112.05L114.277 23.1862L116.504 19.6987Z" fill="#1A2D57"/>
<path d="M114.508 23.3008H118.964L116.735 19.8124L114.508 23.3008Z" fill="#1A2D57"/>
<path d="M124.109 23.1862L126.335 19.6987H121.881L124.109 23.1862Z" fill="#1A2D57"/>
<path d="M124.339 23.3008H128.795L126.566 19.8124L124.339 23.3008Z" fill="#1A2D57"/>
<path d="M136.167 19.6987H131.713L133.939 23.1862L135.054 21.4432L136.167 19.6987Z" fill="#1A2D57"/>
<path d="M138.625 23.3008L136.398 19.8124L134.17 23.3008H138.625Z" fill="#1A2D57"/>
<path d="M114.508 23.5469L116.735 27.0377L118.964 23.5469H114.508Z" fill="#1A2D57"/>
<path d="M121.421 27.1518L119.193 23.661L116.964 27.1518H121.421Z" fill="#1A2D57"/>
<path d="M126.335 27.1518L124.109 23.6625L121.881 27.1518H126.335Z" fill="#1A2D57"/>
<path d="M126.566 27.0377L128.795 23.5469H124.339L126.566 27.0377Z" fill="#1A2D57"/>
<path d="M131.252 27.1518L129.024 23.6625L126.796 27.1518H131.252Z" fill="#1A2D57"/>
<path d="M133.939 23.661L131.713 27.1518H136.167L133.939 23.661Z" fill="#1A2D57"/>
<path d="M136.398 27.0377L138.626 23.5469H134.17L136.398 27.0377Z" fill="#1A2D57"/>
<path d="M116.964 27.3979L119.192 30.8863L119.199 30.8763L121.421 27.3979H116.964Z" fill="#1A2D57"/>
<path d="M119.423 31H123.878L123.568 30.5132L121.651 27.5116L119.423 31Z" fill="#1A2D57"/>
<path d="M124.108 30.8863L126.335 27.3979H121.882L124.108 30.8863Z" fill="#1A2D57"/>
<path d="M121.881 27.3979L124.108 30.8863L121.882 27.3979H121.881Z" fill="#1A2D57"/>
<path d="M126.796 27.3979L129.024 30.8863L131.252 27.3979H126.796Z" fill="#1A2D57"/>
<path d="M129.254 31H133.71L131.482 27.5116L129.254 31Z" fill="#1A2D57"/>
<path d="M136.167 27.3979H131.713L133.939 30.8863L136.167 27.3979Z" fill="#1A2D57"/>
<path d="M146 12H141.545L143.771 15.4884L146 12Z" fill="#1A2D57"/>
<path d="M32.3736 14.6989L27.5004 28.9639H24.9513L22.1961 20.1553L19.4222 28.9639H16.8737L12 14.6989H15.0739L18.241 23.9181L20.9781 14.6989H23.3769L26.1134 23.9363L29.3184 14.6989H32.3736Z" fill="#1A2D57"/>
<path d="M39.2901 28.9639H36.3847V14.7172H39.2901V28.9639Z" fill="#1A2D57"/>
<path d="M54.5279 25.2199C54.5279 25.7551 54.4064 26.2636 54.1628 26.7456C53.9193 27.2267 53.5785 27.6512 53.1414 28.019C52.7038 28.3879 52.185 28.6824 51.5856 28.903C50.9856 29.1227 50.3232 29.232 49.5987 29.232C48.9493 29.232 48.365 29.197 47.8457 29.1256C47.3274 29.0536 46.8399 28.9409 46.3842 28.786C45.9274 28.6325 45.4903 28.4334 45.0718 28.1888C44.6529 27.9461 44.2193 27.6512 43.7686 27.3068L45.8306 25.3273C46.4311 25.8026 47.0174 26.1384 47.5926 26.3345C48.1679 26.5307 48.7925 26.6281 49.4666 26.6281C49.7419 26.6281 50.001 26.5902 50.2445 26.513C50.488 26.4353 50.7003 26.3317 50.8818 26.2012C51.0628 26.0707 51.207 25.9158 51.3133 25.7374C51.4192 25.559 51.4726 25.3628 51.4726 25.1489C51.4726 24.923 51.4288 24.721 51.3411 24.5431C51.2533 24.3642 51.097 24.1925 50.8727 24.0255C50.6473 23.8586 50.3358 23.6903 49.9355 23.5171C49.5352 23.3445 49.0229 23.1512 48.3988 22.9368C47.8482 22.7473 47.3209 22.53 46.8142 22.2868C46.3085 22.0432 45.8649 21.7487 45.4832 21.4043C45.1021 21.0595 44.7961 20.6551 44.5657 20.1918C44.3343 19.728 44.2188 19.1817 44.2188 18.5514C44.2188 17.9451 44.3464 17.3864 44.6025 16.8751C44.8586 16.3642 45.209 15.9268 45.6526 15.5642C46.0963 15.2016 46.6141 14.9196 47.2075 14.7172C47.8014 14.5152 48.4411 14.414 49.1288 14.414C50.2788 14.414 51.2473 14.5565 52.0343 14.8419C52.8213 15.1277 53.521 15.5436 54.1336 16.0904L52.1094 18.0339C51.7343 17.689 51.3159 17.4247 50.853 17.2406C50.3907 17.0559 49.8472 16.9643 49.2226 16.9643C48.9352 16.9643 48.6695 17.0055 48.426 17.089C48.1825 17.1724 47.9733 17.2823 47.7978 17.419C47.6224 17.5562 47.4827 17.7159 47.3769 17.9005C47.27 18.0847 47.2175 18.278 47.2175 18.4799C47.2175 18.7063 47.2669 18.9107 47.3678 19.0953C47.4676 19.2795 47.636 19.4579 47.8735 19.6301C48.1109 19.8023 48.426 19.975 48.8198 20.1472C49.213 20.3194 49.7036 20.5069 50.2909 20.7088C51.0406 20.9587 51.6844 21.2321 52.2213 21.5285C52.7588 21.8264 53.1964 22.153 53.5337 22.5089C53.8709 22.8658 54.121 23.2677 54.2833 23.7133C54.4467 24.1594 54.5279 24.6611 54.5279 25.2199Z" fill="#1A2D57"/>
<path d="M69.0169 25.2199C69.0169 25.7551 68.8954 26.2636 68.6514 26.7456C68.4074 27.2267 68.0671 27.6512 67.6299 28.019C67.1923 28.3879 66.6741 28.6824 66.0741 28.903C65.4747 29.1227 64.8117 29.232 64.0877 29.232C63.4379 29.232 62.854 29.197 62.3348 29.1256C61.8165 29.0536 61.329 28.9409 60.8737 28.786C60.4169 28.6325 59.9803 28.4334 59.5609 28.1888C59.1419 27.9461 58.7083 27.6512 58.2586 27.3068L60.3196 25.3273C60.9201 25.8026 61.5064 26.1384 62.0817 26.3345C62.6569 26.5307 63.2821 26.6281 63.9561 26.6281C64.2314 26.6281 64.4905 26.5902 64.7341 26.513C64.9781 26.4353 65.1898 26.3317 65.3718 26.2012C65.5533 26.0707 65.697 25.9158 65.8029 25.7374C65.9087 25.559 65.9617 25.3628 65.9617 25.1489C65.9617 24.923 65.9178 24.721 65.8301 24.5431C65.7434 24.3642 65.5871 24.1925 65.3617 24.0255C65.1364 23.8586 64.8243 23.6903 64.4245 23.5171C64.0242 23.3445 63.512 23.1512 62.8878 22.9368C62.3373 22.7473 61.8099 22.53 61.3043 22.2868C60.7976 22.0432 60.3539 21.7487 59.9733 21.4043C59.5911 21.0595 59.2851 20.6551 59.0547 20.1918C58.8233 19.728 58.7078 19.1817 58.7078 18.5514C58.7078 17.9451 58.8354 17.3864 59.092 16.8751C59.3471 16.3642 59.698 15.9268 60.1417 15.5642C60.5853 15.2016 61.1036 14.9196 61.6975 14.7172C62.2904 14.5152 62.9317 14.414 63.6189 14.414C64.7678 14.414 65.7368 14.5565 66.5238 14.8419C67.3113 15.1277 68.0106 15.5436 68.6226 16.0904L66.5984 18.0339C66.2228 17.689 65.8049 17.4247 65.3431 17.2406C64.8803 17.0559 64.3368 16.9643 63.7126 16.9643C63.4242 16.9643 63.1591 17.0055 62.915 17.089C62.671 17.172 62.4623 17.2823 62.2874 17.419C62.1124 17.5562 61.9718 17.7159 61.8654 17.9005C61.7595 18.0847 61.7066 18.278 61.7066 18.4799C61.7066 18.7063 61.7555 18.9107 61.8563 19.0953C61.9561 19.2795 62.125 19.4579 62.3625 19.6301C62.5999 19.8023 62.915 19.975 63.3088 20.1472C63.702 20.3194 64.1931 20.5069 64.7799 20.7088C65.5291 20.9587 66.1729 21.2321 66.7104 21.5285C67.2473 21.8264 67.6849 22.153 68.0227 22.5089C68.36 22.8658 68.61 23.2677 68.7724 23.7133C68.9347 24.1594 69.0169 24.6611 69.0169 25.2199Z" fill="#1A2D57"/>
<path d="M83.4111 28.9639H73.515V14.7172H83.4111V16.9998H76.3635V20.4057H83.3179V22.6346H76.3635V26.5585H83.4111V28.9639Z" fill="#1A2D57"/>
<path d="M97.7126 28.9639L90.9458 18.961V28.9639H88.0968V14.6989H91.3587L97.7131 24.0068V14.6989H100.562V28.9639H97.7126Z" fill="#1A2D57"/>
<path d="M136.629 12L138.857 15.4884L141.084 12H136.629Z" fill="#808285"/>
<path d="M139.087 15.6026H143.541L141.314 12.1146L139.087 15.6026Z" fill="#808285"/>
<path d="M143.541 15.8486H139.087L141.314 19.338L143.541 15.8486Z" fill="#808285"/>
</svg>
