<svg width="18" height="19" viewBox="0 0 18 19" fill="none" xmlns="http://www.w3.org/2000/svg">
<path d="M9.01502 15.8975C7.26752 15.8975 5.52002 15.62 3.86252 15.065C3.23252 14.8475 2.75252 14.405 2.54252 13.8275C2.32502 13.25 2.40002 12.6125 2.74502 12.0425L3.60752 10.61C3.78752 10.31 3.95252 9.71 3.95252 9.3575V7.19C3.95252 4.4 6.22502 2.1275 9.01502 2.1275C11.805 2.1275 14.0775 4.4 14.0775 7.19V9.3575C14.0775 9.7025 14.2425 10.31 14.4225 10.6175L15.2775 12.0425C15.6 12.5825 15.66 13.235 15.4425 13.8275C15.225 14.42 14.7525 14.87 14.16 15.065C12.51 15.62 10.7625 15.8975 9.01502 15.8975ZM9.01502 3.2525C6.84752 3.2525 5.07752 5.015 5.07752 7.19V9.3575C5.07752 9.905 4.85252 10.715 4.57502 11.1875L3.71252 12.62C3.54752 12.8975 3.50252 13.19 3.60002 13.4375C3.69002 13.6925 3.91502 13.8875 4.22252 13.9925C7.35752 15.0425 10.68 15.0425 13.815 13.9925C14.085 13.9025 14.295 13.7 14.3925 13.43C14.49 13.16 14.4675 12.8675 14.3175 12.62L13.455 11.1875C13.17 10.7 12.9525 9.8975 12.9525 9.35V7.19C12.9525 5.015 11.19 3.2525 9.01502 3.2525Z" fill="#1A1A1A"/>
<path d="M10.41 3.45501C10.3575 3.45501 10.305 3.44751 10.2525 3.43251C10.035 3.37251 9.82502 3.32751 9.62252 3.29751C8.98502 3.21501 8.37002 3.26001 7.79252 3.43251C7.58252 3.50001 7.35752 3.43251 7.21502 3.27501C7.07252 3.11751 7.02752 2.89251 7.11002 2.69001C7.41752 1.90251 8.16752 1.38501 9.02252 1.38501C9.87752 1.38501 10.6275 1.89501 10.935 2.69001C11.01 2.89251 10.9725 3.11751 10.83 3.27501C10.7175 3.39501 10.56 3.45501 10.41 3.45501Z" fill="#1A1A1A"/>
<path d="M9.01501 17.6075C8.27251 17.6075 7.55251 17.3075 7.02751 16.7825C6.50251 16.2575 6.20251 15.5375 6.20251 14.795H7.32751C7.32751 15.2375 7.50751 15.6725 7.82251 15.9875C8.13751 16.3025 8.57251 16.4825 9.01501 16.4825C9.94501 16.4825 10.7025 15.725 10.7025 14.795H11.8275C11.8275 16.3475 10.5675 17.6075 9.01501 17.6075Z" fill="#1A1A1A"/>
</svg>
